<?xml version="1.0" encoding="UTF-8" standalone="no"?>
<svg width="55px" height="55px" viewBox="0 0 55 55" version="1.1" xmlns="http://www.w3.org/2000/svg" xmlns:xlink="http://www.w3.org/1999/xlink">
    <!-- Generator: Sketch 3.8.3 (29802) - http://www.bohemiancoding.com/sketch -->
    <title>IG</title>
    <desc>Created with Sketch.</desc>
    <defs></defs>
    <g id="Page-1" stroke="none" stroke-width="1" fill="none" fill-rule="evenodd">
        <g id="SOCIAL-ICONS-SKETCH" transform="translate(-971.000000, -598.000000)" fill="#FFFFFF">
            <g id="FULL-WHITE" transform="translate(425.000000, 597.000000)">
                <g id="IG" transform="translate(546.000000, 1.000000)">
                    <path d="M27.6240184,0.509873418 C12.764908,0.509873418 0.718895706,12.5605063 0.718895706,27.4253165 C0.718895706,42.283038 12.764908,54.3336709 27.6240184,54.3336709 C42.4760429,54.3336709 54.5220552,42.283038 54.5220552,27.4253165 C54.5220552,12.5605063 42.4760429,0.509873418 27.6240184,0.509873418 L27.6240184,0.509873418 Z M41.4202454,37.2643038 C41.4202454,38.9655696 39.903865,40.1139241 38.2032515,40.1139241 L18.3981902,40.1139241 C16.6904908,40.1139241 15.202454,38.9655696 15.202454,37.2643038 L15.202454,17.4374684 C15.202454,15.7362025 16.6904908,14.5949367 18.3981902,14.5949367 L38.2032515,14.5949367 C39.903865,14.5949367 41.4202454,15.7362025 41.4202454,17.4374684 L41.4202454,37.2643038 L41.4202454,37.2643038 Z" id="Instagram-Circle"></path>
                    <path d="M23.3370552,27.3827848 C23.3370552,24.6253165 25.5691104,22.3924051 28.3255215,22.3924051 C31.0890184,22.3924051 33.3281595,24.6253165 33.3281595,27.3827848 C33.3281595,30.1331646 31.0890184,32.3660759 28.3255215,32.3660759 C25.5691104,32.3660759 23.3370552,30.1331646 23.3370552,27.3827848 Z M37.8773006,20.8683544 C37.8773006,21.318481 37.5123773,21.6835443 37.0624233,21.6835443 L34.4406442,21.6835443 C33.9906902,21.6835443 33.6257669,21.318481 33.6257669,20.8683544 L33.6257669,18.2455696 C33.6257669,17.795443 33.9906902,17.4303797 34.4406442,17.4303797 L37.0624233,17.4303797 C37.5123773,17.4303797 37.8773006,17.795443 37.8773006,18.2455696 L37.8773006,20.8683544 Z M35.6027301,25.2278481 L38.5858896,25.2278481 L38.5858896,37.0941772 C38.5858896,37.5478481 38.4866871,37.9873418 38.0402761,37.9873418 L18.5540798,37.9873418 C18.1076687,37.9873418 18.0368098,37.5478481 18.0368098,37.0941772 L18.0368098,25.2278481 L20.9916258,25.2278481 C20.5664724,25.2278481 20.4247546,26.8156962 20.4247546,27.5387342 C20.4247546,31.8840506 23.9747853,35.3503797 28.3255215,35.3503797 C32.6904294,35.3503797 36.2333742,31.923038 36.2333742,27.5777215 C36.2333742,26.8546835 36.1270859,25.2278481 35.6027301,25.2278481 Z" id="Instagram"></path>
                </g>
            </g>
        </g>
    </g>
</svg>